<svg xmlns="http://www.w3.org/2000/svg" fill="none" viewBox="0 0 297 297">
    <path d="m259.302,142.014c3.627,1.987 7.787,3.119 12.206,3.119 14.056,0 25.491-11.435 25.491-25.491s-11.434-25.492-25.49-25.492c-14.056,0-25.492,11.435-25.492,25.492 0,2.598 0.393,5.105 1.118,7.468l-27.609,22.088c-9.82-7.807-20.879-14.117-32.83-18.586l12.967-51.869c0.221,0.006 0.44,0.017 0.662,0.017 14.056,0 25.491-11.435 25.491-25.492s-11.435-25.492-25.491-25.492c-14.056,0-25.492,11.435-25.492,25.492 0,6.776 2.663,12.938 6.99,17.509l-13.641,54.564c-7.651-1.526-15.558-2.332-23.65-2.332-17.464,0-34.071,3.733-49.073,10.434l-35.048-78.859c4.149-4.536 6.684-10.571 6.684-17.188 0-14.056-11.435-25.492-25.491-25.492-14.056,0-25.491,11.435-25.491,25.492 0,14.056 11.435,25.492 25.491,25.492 0.479,0 0.953-0.016 1.426-0.042l35.493,79.859c-9.666,6.337-18.37,14.02-25.847,22.784l-7.443-14.886c4.591-4.612 7.433-10.967 7.433-17.974 0-14.056-11.435-25.492-25.492-25.492s-25.491,11.435-25.491,25.491 11.435,25.492 25.492,25.492c0.102,0 0.202-0.007 0.304-0.008l12.586,25.173c-8.812,15.171-14.415,32.425-15.873,50.829h-14.573c-5.312,0-9.619,4.307-9.619,9.619v31.744c0,5.312 4.307,9.62 9.619,9.62h269.825c5.312,0 9.62-4.307 9.62-9.62v-31.744c0-5.312-4.307-9.619-9.62-9.619h-14.572c-2.177-27.481-13.594-52.401-31.139-71.643l25.569-20.457zm-58.977-94.999c3.448,0 6.253,2.805 6.253,6.253 0,3.448-2.805,6.253-6.253,6.253-3.448,0-6.253-2.805-6.253-6.253 0-3.448 2.805-6.253 6.253-6.253zm-164.974-9.619c0-3.448 2.805-6.253 6.253-6.253 3.448,0 6.253,2.805 6.253,6.253 0,3.448-2.805,6.253-6.253,6.253-3.448-0.001-6.253-2.806-6.253-6.253zm-14.429,95.232c0-3.448 2.805-6.253 6.253-6.253s6.253,2.805 6.253,6.253-2.805,6.253-6.253,6.253-6.253-2.805-6.253-6.253zm250.587-19.239c3.448,0 6.253,2.805 6.253,6.253s-2.805,6.253-6.253,6.253c-3.448,0-6.253-2.805-6.253-6.253s2.805-6.253 6.253-6.253zm-1.684,152.468h-250.586v-12.505h250.586v12.505zm-24.267-31.744h-202.052c2.871-30.393 19.201-56.924 42.951-73.557l17.541,39.467c1.593,3.585 5.109,5.715 8.796,5.715 1.305,0 2.631-0.268 3.901-0.832 4.855-2.157 7.041-7.842 4.883-12.697l-18.306-41.188c12.613-5.635 26.576-8.774 41.26-8.774 22.215,0 42.782,7.181 59.513,19.335l-33.778,27.022c-4.148,3.319-4.821,9.372-1.502,13.521 1.9,2.375 4.695,3.61 7.517,3.61 2.108,0 4.23-0.689 6.004-2.108l36.39-29.112c14.892,15.942 24.716,36.671 26.882,59.598z"/>
    <style>
        path { fill: #5a67d8 ; }
        @media (prefers-color-scheme: dark) {
            path { fill: #FFF; }
        }
    </style>
</svg>
